<svg preserveAspectRatio="none" width="100%" height="100%" overflow="visible" style="display: block;" viewBox="0 0 199.17 69.5308" fill="none" xmlns="http://www.w3.org/2000/svg">
<path id="Chart" d="M3.9834 65.5473C14.1358 65.5473 36.471 62.1682 44.593 55.3999C54.7453 46.9396 59.8305 43.5555 66.5898 50.3188C75.0501 58.7841 78.4343 58.7791 85.2025 50.3188C91.9708 41.8584 91.9708 40.1664 93.6628 38.4743C95.3549 36.7822 99.5405 32.503 107.199 40.1664C115.66 48.6317 119.044 48.6294 124.12 38.477C129.196 28.3246 130.888 18.1722 135.964 9.71188C141.041 1.25156 149.501 2.94362 156.269 9.71188C163.037 16.4801 173.19 30.019 174.882 31.711C176.574 33.4031 185.034 43.5555 195.187 31.711" stroke="var(--stroke-0, #00A5A5)" stroke-width="7.96681" stroke-linecap="round" stroke-linejoin="round"/>
</svg>
