<svg preserveAspectRatio="none" width="100%" height="100%" overflow="visible" style="display: block;" viewBox="0 0 199.171 111.242" fill="none" xmlns="http://www.w3.org/2000/svg">
<path id="Chart" d="M3.98394 104.451C7.87018 98.2331 17.7333 86.7428 22.6379 83.4653C29.6332 78.7909 36.6284 78.7909 48.2871 88.1179C59.9459 97.4449 62.2776 102.119 64.6094 104.451C66.9411 106.783 80.9316 113.756 80.9316 90.4497C80.9316 69.3237 80.9316 48.4782 80.9316 43.8147C80.9316 39.1512 83.2634 27.6124 99.5856 36.8195C110.602 43.0334 130.294 51.9529 134.562 39.1507C136.894 32.156 139.225 20.4972 139.225 15.8392C139.225 8.45988 146.221 -0.479025 160.211 6.51766C165.487 9.15617 184.306 16.6209 195.187 18.175" stroke="var(--stroke-0, #007979)" stroke-width="7.96681" stroke-linecap="round"/>
</svg>
